<svg xmlns="http://www.w3.org/2000/svg" viewBox="0 0 800 420" width="800" height="420"><defs><radialGradient id="g6" cx="50%" cy="50%" r="50%"><stop offset="0%" stop-color="#001a28"/><stop offset="100%" stop-color="#060810"/></radialGradient><radialGradient id="rg6" cx="50%" cy="50%" r="40%"><stop offset="0%" stop-color="#00b8db" stop-opacity=".12"/><stop offset="100%" stop-color="#00b8db" stop-opacity="0"/></radialGradient></defs><rect width="800" height="420" fill="url(#g6)"/><rect width="800" height="420" fill="url(#rg6)"/><g stroke="#0a2535" stroke-width="0.8" fill="none"><circle cx="400" cy="210" r="60"/><circle cx="400" cy="210" r="100"/><circle cx="400" cy="210" r="145"/><circle cx="400" cy="210" r="185"/></g><g stroke="#00b8db" stroke-width="1" fill="none" opacity=".35"><line x1="400" y1="25" x2="400" y2="395"/><line x1="215" y1="210" x2="585" y2="210"/><line x1="269" y1="79" x2="531" y2="341"/><line x1="531" y1="79" x2="269" y2="341"/></g><g fill="#00b8db"><circle cx="400" cy="210" r="10" opacity=".85"/><circle cx="400" cy="65" r="5" opacity=".7"/><circle cx="400" cy="355" r="5" opacity=".7"/><circle cx="255" cy="210" r="5" opacity=".7"/><circle cx="545" cy="210" r="5" opacity=".7"/><circle cx="297" cy="107" r="4" opacity=".55"/><circle cx="503" cy="313" r="4" opacity=".55"/><circle cx="503" cy="107" r="4" opacity=".55"/><circle cx="297" cy="313" r="4" opacity=".55"/></g><circle cx="400" cy="210" r="22" fill="none" stroke="#00b8db" stroke-width="0.8" opacity=".2"/><text x="400" y="395" font-family="system-ui,sans-serif" font-size="10" font-weight="700" letter-spacing="4" text-anchor="middle" fill="#00b8db" opacity=".35">ADVISORY</text></svg>